. 
 
 
http://www.torrentday.com :  Your Key To The Scene.


Now TvTeam with [No-RAR] Releases.



(((((((((((((= Enjoy No RAR releases =))))))))))))))))))))



...................................NFO:....................................

.
                                                     
                                                   
                                                         
                                                          
                                                           
                                                          
                                                          
                                                          
                                                           
                                                         
                                                          
                                                        
                                                      
                                     
                                                 
                                                   
                                             
                                              
                                                     
                                                      
                                                      
                                                      
                                                    
                                                     
                                                   
                                                     
                                                     
                                                      
                                                     
                                                      
                                                    
                 ARTiCHOKE                        
                                                
                      
                                                        
                                                      
                                                      
                                               
                                          
                                                   
                                            
                                                    
                                                       
                                                        
                                                      
                                                
                                                        
                                                 
                                              
                                                  
                                                
                                                  
                                        

      
                                
      SPRiNTER proudly presents...     
                                
      
 
 Northwest.200.2010.DVDRip.XViD-SPRiNTER  http://www.dukevideo.com/Bikes/DVD/Road-Racing-except-TT/North-West-200/Northwest-200-2010-DVD.aspx
 Subtitles: N/A

 Date: 2010.06

 

 Plot: The 2010 North West 200 produced another amazing set of races around the famous Portrush Triangle.

The Official DVD Review is packed with the most amazing action as the best road racers battle for victory in six races.

Featuring John McGuinness, Keith Amor, Ian Hutchinson, Stuart Easton and many more in some of the closest racing you'll see anywhere, plus, of course Alastair Seeley, who took the first 'home' win for 13 years.

Aerial shots, on-bike footage, interviews and informed commentary deliver comprehensive coverage as the NW200 delivers another scintillating day of racing.


 

      
                 
      Release notes     
                 
      

 Enjoy!


      
           
     Greetings    
           
      


NTX aAF FiCO HNR CiNEFiLE AEN HUMANiSM


      
           
      Details     
           
      


Format                           : AVI
Format/Info                      : Audio Video Interleave
File size                        : 695 MiB
Duration                         : 1h 37mn
Overall bit rate                 : 997 Kbps
Writing application              : Nandub v1.0rc2
Writing library                  : Nandub build 1852/release

Video
ID                               : 0
Format                           : MPEG-4 Visual
Format profile                   : Advanced Simple@L5
Format settings, BVOP            : No
Format settings, QPel            : No
Format settings, GMC             : No warppoints
Format settings, Matrix          : Default (H.263)
Codec ID                         : XVID
Codec ID/Hint                    : XviD
Duration                         : 1h 37mn
Bit rate                         : 848 Kbps
Width                            : 576 pixels
Height                           : 320 pixels
Display aspect ratio             : 16:9
Frame rate                       : 25.000 fps
Resolution                       : 8 bits
Colorimetry                      : 4:2:0
Scan type                        : Progressive
Bits/(Pixel*Frame)               : 0.184
Stream size                      : 591 MiB (85%)
Writing library                  : XviD 1.1.2 (UTC 2006-11-01)

Audio
ID                               : 1
Format                           : MPEG Audio
Format version                   : Version 1
Format profile                   : Layer 3
Codec ID                         : 55
Codec ID/Hint                    : MP3
Duration                         : 1h 37mn
Bit rate mode                    : Variable
Bit rate                         : 137 Kbps
Minimum bit rate                 : 40.0 Kbps
Channel(s)                       : 2 channels
Sampling rate                    : 48.0 KHz
Stream size                      : 95.1 MiB (14%)
Alignment                        : Aligned on interleaves
Interleave, duration             : 24 ms (0.60 video frame)
Interleave, preload duration     : 155 ms
Writing library                  : LAME3.95 
Encoding settings                : -m s -V 6 -q 3 -lowpass 16 --vbr-old -b 40